<?xml version="1.0" encoding="UTF-8"?>
<svg width="100px" height="100px" viewBox="0 0 100 100" version="1.1" xmlns="http://www.w3.org/2000/svg" xmlns:xlink="http://www.w3.org/1999/xlink">
  <!-- Generator: Sketch 51.3 (57544) - http://www.bohemiancoding.com/sketch -->
  <title>Menu 12</title>
  <desc>Created with Sketch.</desc>
  <defs></defs>
  <g id="Menu-12" stroke="none" stroke-width="1" fill="none" fill-rule="evenodd">
    <rect id="Rectangle" fill="#000000" x="0" y="0" width="100" height="14"></rect>
    <rect id="Rectangle" fill="#000000" x="0" y="26" width="100" height="14"></rect>
    <rect id="Rectangle" fill="#000000" x="0" y="51" width="100" height="14"></rect>
    <path d="M2.42956757,100.32 L-0.088,100.32 L-0.088,77.32 L3.48632432,77.32 L10.7282162,96.87 L10.7903784,96.87 L17.9079459,77.32 L21.5444324,77.32 L21.5444324,100.32 L18.8403784,100.32 L18.8403784,81.7024324 L18.7782162,81.7024324 C18.4674054,82.9145946 17.9079459,84.4064865 17.3795676,85.9294595 L11.8782162,100.32 L9.42281081,100.32 L3.92145946,85.9294595 C3.362,84.4064865 2.98902703,83.442973 2.49172973,81.6091892 L2.42956757,81.6091892 L2.42956757,100.32 Z" id="M" fill="#000000"></path>
    <polygon id="E" fill="#000000" points="45.7635135 100.32 31 100.32 31 77.32 45.1108108 77.32 45.1108108 79.8375676 33.7351351 79.8375676 33.7351351 87.0172973 42.1891892 87.0172973 42.1891892 89.4727027 33.7351351 89.4727027 33.7351351 97.8335135 45.7635135 97.8335135"></polygon>
    <polygon id="N" fill="#000000" points="58.5797297 100.32 56 100.32 56 77.32 58.8905405 77.32 70.9810811 95.5024324 71.0432432 95.5024324 71.0432432 77.32 73.622973 77.32 73.622973 100.32 71.1675676 100.32 58.6418919 81.6402703 58.5797297 81.6402703"></polygon>
    <path d="M91.3997344,100 C85.5962815,100 83,96.4568393 83,91.7835325 L83,77 L85.687915,77 L85.687915,91.4169987 C85.687915,95.0517928 87.4289509,97.5869854 91.4302789,97.5869854 C95.3705179,97.5869854 97.1115538,95.1434263 97.1115538,91.4780876 L97.1115538,77 L99.7689243,77 L99.7689243,91.7224436 C99.7689243,96.4262948 96.9893758,100 91.3997344,100 Z" id="U" fill="#000000"></path>
  </g>
</svg>
