<?xml version="1.0" encoding="UTF-8"?>
<svg width="115px" height="110px" viewBox="0 0 115 110" version="1.1" xmlns="http://www.w3.org/2000/svg" xmlns:xlink="http://www.w3.org/1999/xlink">
    <defs>
        <polygon id="path-1" points="50.4572 0.962 0.0002 0.962 0.0002 73.1905 50.4572 73.1905 50.4572 0.962"></polygon>
        <polygon id="path-3" points="19.687 27.6007 19.687 0.1587 0.1679 0.1587 0.1679 27.6007"></polygon>
        <polygon id="path-5" points="28.3468 34 0.2138 34 0.2138 0.1611 28.3468 0.1611 28.3468 34"></polygon>
    </defs>
    <g id="MASTER" stroke="none" stroke-width="1" fill="none" fill-rule="evenodd">
        <g id="DEV_BRANDING" transform="translate(-856.000000, -474.000000)">
            <g id="LOGO_LAT_Stacked_w" transform="translate(856.000000, 473.000000)">
                <g id="Group-3" transform="translate(0.000000, 0.038000)">
                    <mask id="mask-2" fill="white">
                        <use xlink:href="#path-1"></use>
                    </mask>
                    <g id="Clip-2"></g>
                    <path d="M30.3252,57.8115 L30.3252,16.7565 C24.8392,16.0345 21.3432,12.2785 19.4392,10.0345 L13.9972,14.4405 C14.0262,20.5885 15.7782,25.9565 17.8852,30.8565 C19.8092,35.3365 21.9452,41.1785 21.9452,45.1985 C21.9452,51.8175 18.3162,55.9975 9.5912,64.2065 L9.8492,64.4635 C15.0342,60.5775 23.3602,57.9305 30.3252,57.8115 L30.3252,57.8115 Z M50.4572,58.5025 L42.5092,73.1905 C38.0692,70.0965 30.9282,68.1805 24.8832,68.1805 C12.9602,68.1805 4.7522,70.3405 0.5182,73.0185 L0.0002,72.4135 C3.7812,69.1045 10.1082,63.7885 10.1082,51.6765 C10.1082,46.5755 8.0542,40.7905 6.5662,36.9915 C4.8432,32.5845 3.5422,30.3525 3.5422,24.2045 C3.5422,13.5005 9.2782,7.4285 18.3162,2.8625 L19.0082,3.7275 C15.8882,6.3215 14.4582,9.6805 13.9972,13.0575 L28.4252,0.9615 C32.1252,6.1595 35.6192,8.1335 40.1762,8.1335 C43.9152,8.1335 45.0142,6.5125 45.0142,5.1965 C45.0142,4.2455 43.7182,4.0535 43.7182,3.1225 C43.7182,2.2395 44.3272,1.9985 44.8412,1.9985 C45.9872,1.9985 46.3092,3.4795 46.3092,4.5905 C46.3092,11.8795 40.5202,16.9465 34.0412,16.9465 C32.9172,16.9465 31.9052,16.9855 31.1892,16.8605 L31.1892,57.8115 C36.3972,57.8115 42.7672,59.5405 47.3462,61.5285 L49.3342,57.9855 L50.4572,58.5025 Z" id="Fill-1" fill="#FFFFFF" mask="url(#mask-2)"></path>
                </g>
                <g id="Group-6" transform="translate(95.000000, 83.038000)">
                    <mask id="mask-4" fill="white">
                        <use xlink:href="#path-3"></use>
                    </mask>
                    <g id="Clip-5"></g>
                    <path d="M13.0049,23.2627 L13.0049,16.1377 C12.1639,15.7397 10.7379,15.0587 9.9049,14.6327 L3.0459,21.7147 L3.0899,21.7577 C4.1299,21.1937 5.3929,20.6077 7.5169,20.6077 C9.6849,20.6077 11.8779,22.1737 12.9159,23.3087 L13.0049,23.2627 Z M19.6879,20.4747 C16.2349,21.9797 11.2689,24.7227 8.8439,26.8927 C7.6059,25.6977 5.9499,24.5907 3.7979,24.5907 C1.7799,24.5907 0.8779,25.3227 0.8779,26.0077 C0.8779,26.4337 1.7189,26.3667 1.7189,26.9807 C1.7189,27.2637 1.4759,27.6007 1.0979,27.6007 C0.6259,27.6007 0.1679,26.9047 0.1679,26.0527 C0.1679,24.4577 0.8729,23.0577 3.4009,20.4317 L7.8269,15.8267 C5.9989,14.8927 3.3329,13.7287 1.8519,13.0827 L1.8519,12.8617 C2.2809,12.7397 2.6039,12.3107 2.6039,11.7997 L2.6039,7.9927 C2.6039,7.5747 2.3839,6.9317 1.8519,6.7537 L1.8519,6.5767 C5.5689,5.2497 10.3049,2.5937 13.0049,0.6907 C13.6089,1.3637 15.1949,2.7707 16.8999,2.7707 C18.3359,2.7707 18.6699,2.0767 18.6699,1.5757 C18.6699,1.2907 18.1389,1.1327 18.1389,0.6907 C18.1389,0.3127 18.3409,0.1587 18.6259,0.1587 C19.0499,0.1587 19.4219,0.5487 19.4219,1.3547 C19.4219,3.7437 17.1239,6.7987 13.5359,6.7987 C11.1739,6.7987 9.7299,5.7367 8.6229,4.1877 L8.5349,4.2317 L8.5349,10.1617 L11.8109,11.7557 L13.2709,10.2067 C14.8029,11.1757 17.9969,12.8907 19.6879,13.6147 L19.6879,13.7477 C19.3569,13.8867 18.9359,14.2797 18.9359,14.9867 L18.9359,19.1917 C18.9359,19.7897 19.3789,20.1647 19.6879,20.2967 L19.6879,20.4747 Z" id="Fill-4" fill="#FFFFFF" mask="url(#mask-4)"></path>
                </g>
                <path d="M89.9023,94.5273 C88.6633,92.8013 86.2733,89.4833 84.9013,87.4463 L84.7683,87.4913 L84.7683,97.7143 L89.9023,94.5273 Z M95.2573,91.8273 L84.7683,98.3793 L84.7683,102.8483 C86.0963,103.4233 89.2383,104.9733 90.6563,105.9023 L92.9133,103.5563 C93.5333,102.9123 93.3543,101.8313 94.2403,101.8313 C94.5493,101.8313 94.7703,102.0073 94.7703,102.3623 C94.7703,102.7393 94.5103,102.9343 94.3283,103.1143 L87.4683,109.9303 C85.1243,108.4253 80.3863,106.2143 78.0393,105.2393 L78.0393,105.0613 C78.4203,104.9213 78.8363,104.6633 78.8363,103.6903 L78.8363,91.2533 C78.8363,90.2353 78.4703,89.8743 78.0393,89.7923 L78.0393,89.6153 C81.5813,88.4653 86.9813,85.5893 89.5483,83.7723 C91.3193,86.4283 93.5763,89.7043 95.2573,91.8273 L95.2573,91.8273 Z" id="Fill-7" fill="#FFFFFF"></path>
                <g id="Group-11" transform="translate(0.000000, 77.038000)">
                    <mask id="mask-6" fill="white">
                        <use xlink:href="#path-5"></use>
                    </mask>
                    <g id="Clip-10"></g>
                    <path d="M22.8398,28.4531 L22.8398,8.1821 C22.5998,8.1991 22.1678,8.2231 21.9218,8.2231 C20.5498,8.2231 18.1708,7.7031 16.6138,7.2641 C11.9858,8.1011 6.5988,12.0081 6.5988,19.3541 C6.5988,25.6561 11.0848,29.6891 17.4518,29.6891 C19.6088,29.6891 21.5168,29.2401 22.8398,28.4531 M28.3468,2.7551 C28.3468,5.9651 25.8868,7.6931 23.2388,8.1011 L23.2388,28.1741 C26.4718,26.3781 27.5088,24.3961 27.5088,23.4651 C27.5088,23.2641 27.1098,22.9921 27.1098,22.6271 C27.1098,22.3441 27.3368,22.1081 27.5878,22.1081 C27.9528,22.1081 28.1068,22.4281 28.1068,23.0261 C28.1068,27.6951 23.6378,34.0001 14.1408,34.0001 C7.0148,34.0001 0.9718,28.3691 0.9718,21.1501 C0.9718,10.8551 9.5908,7.3051 15.5768,6.9451 C13.3828,6.4671 9.8778,5.7071 6.9578,5.7071 C3.5658,5.7071 0.7738,7.7031 0.7738,9.4981 C0.7738,10.1781 1.3298,10.2971 1.3298,10.7751 C1.3298,11.0391 1.2158,11.3741 0.8518,11.3741 C0.2928,11.3741 0.2138,10.8511 0.2138,10.4171 C0.2138,6.5061 2.6188,0.7201 8.5148,0.7201 C14.4898,0.7201 19.0268,2.8751 23.6778,2.8751 C26.7538,2.8751 27.6678,1.9571 27.5488,0.1611 L28.0678,0.3611 C28.1878,0.6411 28.3468,1.5581 28.3468,2.7551" id="Fill-9" fill="#FFFFFF" mask="url(#mask-6)"></path>
                </g>
                <path d="M77.6425,105.0614 C76.2255,106.2564 73.5255,108.6474 72.1975,109.9304 C70.9575,108.8244 68.3915,106.7884 66.7975,105.6374 L66.7975,105.4594 C67.2575,105.3044 67.5955,104.8644 67.5955,103.8234 L67.5955,91.5184 C66.3125,90.5884 63.7885,88.9954 62.4165,88.1104 L61.4435,88.9514 L61.4435,104.4424 L63.6125,106.0354 C63.6125,106.0354 60.6005,108.6474 59.2755,109.9304 C58.0795,108.7804 56.3075,107.4524 54.7155,106.2564 L54.7155,106.0804 C55.1755,105.9244 55.5125,105.4834 55.5125,104.4424 L55.5125,91.5184 C54.2285,90.5884 51.7055,88.9954 50.3325,88.1104 L49.1385,89.1274 L49.1385,104.4424 L51.3065,106.0354 C51.3065,106.0354 48.3835,108.4804 46.9695,109.8864 C45.6415,108.6924 44.1805,107.6124 42.4115,106.2564 L42.4115,106.1234 C42.9095,105.9204 43.2055,105.3254 43.2055,104.6194 L43.2055,89.7914 L41.3045,88.1104 L40.1105,89.1274 L39.6655,88.6414 C40.9955,87.5344 43.2055,85.5884 45.1105,83.7724 L49.1385,87.4024 L49.1385,88.4204 L54.6265,83.7724 C56.3535,85.0124 61.4435,88.2434 61.4435,88.2434 L66.7095,83.7724 C68.3915,85.1004 72.2425,87.4914 74.3685,88.7304 L74.3685,88.9074 C73.6605,89.0964 73.5695,90.0134 73.5695,90.5004 L73.5695,103.8234 L76.0035,105.6374 L77.1535,104.5754 L77.6425,105.0614 Z" id="Fill-12" fill="#FFFFFF"></path>
                <path d="M38.8261,82.7587 C37.4101,84.7507 36.2591,85.6817 33.9581,85.6817 C32.4071,85.6817 31.3461,84.8397 29.9751,83.3347 L28.8681,84.3537 L28.4251,83.8217 L33.8241,78.9967 C35.3741,82.1407 37.3651,82.6267 38.7381,82.5827 L38.8261,82.7587 Z" id="Fill-14" fill="#FFFFFF"></path>
                <path d="M41.1718,105.5985 C39.6208,106.7795 37.1408,108.6795 35.7278,109.9305 C34.3998,108.8685 32.1428,107.3155 30.3728,106.1105 L30.3728,105.9925 C30.8698,105.8115 31.1688,105.2805 31.1688,104.6525 L31.1688,92.0085 L29.2658,90.5125 L28.0698,91.4185 L27.6268,90.9855 C28.9558,90.0005 31.1688,88.2665 33.0708,86.6525 L37.8958,90.4735 L37.8958,90.6305 C37.3208,90.7875 37.0988,91.1085 37.0988,92.2855 L37.0988,104.4945 L39.5348,106.0715 L40.6848,105.1635 L41.1718,105.5985 Z" id="Fill-16" fill="#FFFFFF"></path>
                <path d="M21.1445,84.3612 C19.3605,84.3612 16.8625,86.9022 16.8625,88.5712 C16.8625,92.9612 21.5085,94.7522 21.5085,99.7572 C21.5085,103.9562 17.1105,106.3802 12.5685,106.9322 L11.7095,106.3662 C14.1995,106.0632 15.3975,105.2762 15.3975,102.4482 C15.3975,98.6252 11.1545,95.5222 11.1545,91.0262 C11.1545,87.3852 14.7895,84.5572 19.7905,84.5572" id="Fill-18" fill="#FFFFFF"></path>
                <path d="M88.6577,44.3173 L79.7587,17.0163 L69.9967,44.3173 L88.6577,44.3173 Z M114.2317,62.6333 L103.2597,72.7433 C99.9767,70.4093 97.1257,68.5083 92.9777,65.9173 L92.9777,65.4853 C93.9187,65.1433 94.4357,64.1803 94.4467,63.0653 C94.4517,62.5753 94.3527,62.0243 94.1877,61.5103 L90.8187,50.9693 L67.5767,50.9693 L64.4667,59.7823 C69.2687,59.7823 72.4947,60.6983 74.8347,61.6823 L76.6497,58.3133 L77.7717,58.9193 L70.2557,72.8293 C67.1107,71.0403 63.5617,69.6313 59.5427,69.6313 C54.8017,69.6313 51.2687,70.9243 49.5197,72.5713 C49.1697,72.8993 48.5737,72.7583 48.8287,72.0513 C51.1717,65.5573 55.9187,60.3373 63.2577,59.8703 L79.3267,15.3743 C77.4327,9.8643 75.2657,8.6353 71.2067,8.6353 C67.4027,8.6353 63.6897,10.3623 63.6897,15.0283 C63.6897,17.1883 65.7627,16.9953 65.7627,18.5713 C65.7627,19.1223 65.2887,19.7803 64.5537,19.7803 C63.1707,19.7803 62.2207,17.8803 62.2207,14.2513 C62.2207,6.0423 68.5277,1.6373 75.3537,1.6373 C81.5737,1.6373 84.1657,3.6243 86.0657,6.2153 C86.7577,4.0553 88.8887,2.6243 90.7317,2.3273 L90.9907,2.6723 C89.8387,4.1023 89.1767,5.3523 89.1767,7.1673 C89.1767,8.1103 89.8657,10.2083 90.1267,10.9673 L107.5797,61.5103 L110.9487,63.7563 L113.3687,61.5963 L114.2317,62.6333 Z" id="Fill-20" fill="#FFFFFF"></path>
            </g>
        </g>
    </g>
</svg>